<mxfile host="app.diagrams.net" modified="2023-02-14T20:03:00.979Z" agent="5.0 (X11)" etag="Jjdv4rgUmpODS3fN3waf" version="20.8.20" type="github">
  <diagram name="Page-1" id="ol_9qDqIIiiKlIj2JP1y">
    <mxGraphModel dx="1430" dy="746" grid="1" gridSize="10" guides="1" tooltips="1" connect="1" arrows="1" fold="1" page="1" pageScale="1" pageWidth="850" pageHeight="1100" math="0" shadow="0">
      <root>
        <mxCell id="0" />
        <mxCell id="1" parent="0" />
        <mxCell id="hziW49wvyorwkzN3ixbF-15" style="edgeStyle=orthogonalEdgeStyle;rounded=0;orthogonalLoop=1;jettySize=auto;html=1;exitX=0.5;exitY=1;exitDx=0;exitDy=0;" edge="1" parent="1">
          <mxGeometry relative="1" as="geometry">
            <mxPoint x="512.5" y="500" as="sourcePoint" />
            <mxPoint x="512.5" y="500" as="targetPoint" />
          </mxGeometry>
        </mxCell>
        <mxCell id="hziW49wvyorwkzN3ixbF-35" style="edgeStyle=orthogonalEdgeStyle;shape=flexArrow;rounded=0;orthogonalLoop=1;jettySize=auto;html=1;exitX=0.5;exitY=1;exitDx=0;exitDy=0;fontFamily=Helvetica;fontSize=12;fontColor=default;" edge="1" parent="1">
          <mxGeometry relative="1" as="geometry">
            <mxPoint x="512.5" y="500" as="sourcePoint" />
            <mxPoint x="512.5" y="500" as="targetPoint" />
          </mxGeometry>
        </mxCell>
        <mxCell id="hziW49wvyorwkzN3ixbF-44" value="" style="group" vertex="1" connectable="0" parent="1">
          <mxGeometry x="470" y="400" width="81.43" height="170" as="geometry" />
        </mxCell>
        <mxCell id="hziW49wvyorwkzN3ixbF-48" value="" style="group" vertex="1" connectable="0" parent="hziW49wvyorwkzN3ixbF-44">
          <mxGeometry x="-50" y="10" width="81.43" height="170" as="geometry" />
        </mxCell>
        <mxCell id="hziW49wvyorwkzN3ixbF-36" value="" style="verticalLabelPosition=bottom;verticalAlign=top;html=1;shape=mxgraph.basic.patternFillRect;fillStyle=diag;step=5;fillStrokeWidth=0.2;fillStrokeColor=#dddddd;sketch=1;jiggle=2;curveFitting=1;strokeColor=default;fontFamily=Helvetica;fontSize=12;fontColor=default;fillColor=default;" vertex="1" parent="hziW49wvyorwkzN3ixbF-48">
          <mxGeometry x="1.4300000000000068" y="30" width="80" height="140" as="geometry" />
        </mxCell>
        <mxCell id="hziW49wvyorwkzN3ixbF-43" value="&lt;div&gt;Backend Server&lt;/div&gt;" style="text;html=1;strokeColor=none;fillColor=none;align=center;verticalAlign=middle;whiteSpace=wrap;rounded=0;" vertex="1" parent="hziW49wvyorwkzN3ixbF-48">
          <mxGeometry width="81.42857142857143" height="30" as="geometry" />
        </mxCell>
        <mxCell id="hziW49wvyorwkzN3ixbF-40" value="" style="rounded=0;whiteSpace=wrap;html=1;sketch=1;jiggle=2;fillStyle=auto;curveFitting=1;strokeColor=default;fontFamily=Helvetica;fontSize=12;fontColor=default;fillColor=default;" vertex="1" parent="hziW49wvyorwkzN3ixbF-48">
          <mxGeometry x="7.376666666666665" y="100" width="66.66666666666666" height="10" as="geometry" />
        </mxCell>
        <mxCell id="hziW49wvyorwkzN3ixbF-39" value="" style="rounded=0;whiteSpace=wrap;html=1;sketch=1;jiggle=2;fillStyle=auto;curveFitting=1;strokeColor=default;fontFamily=Helvetica;fontSize=12;fontColor=default;fillColor=default;" vertex="1" parent="hziW49wvyorwkzN3ixbF-48">
          <mxGeometry x="7.376666666666665" y="80" width="66.66666666666666" height="10" as="geometry" />
        </mxCell>
        <mxCell id="hziW49wvyorwkzN3ixbF-38" value="" style="rounded=0;whiteSpace=wrap;html=1;sketch=1;jiggle=2;fillStyle=auto;curveFitting=1;strokeColor=default;fontFamily=Helvetica;fontSize=12;fontColor=default;fillColor=default;" vertex="1" parent="hziW49wvyorwkzN3ixbF-48">
          <mxGeometry x="7.376666666666665" y="60" width="66.66666666666666" height="10" as="geometry" />
        </mxCell>
        <mxCell id="hziW49wvyorwkzN3ixbF-37" value="" style="rounded=0;whiteSpace=wrap;html=1;sketch=1;jiggle=2;fillStyle=auto;curveFitting=1;strokeColor=default;fontFamily=Helvetica;fontSize=12;fontColor=default;fillColor=default;" vertex="1" parent="hziW49wvyorwkzN3ixbF-48">
          <mxGeometry x="7.376666666666665" y="40" width="66.66666666666666" height="10" as="geometry" />
        </mxCell>
        <mxCell id="hziW49wvyorwkzN3ixbF-50" value="" style="strokeWidth=2;html=1;shape=mxgraph.flowchart.annotation_2;align=left;labelPosition=right;pointerEvents=1;sketch=1;jiggle=2;fillStyle=auto;curveFitting=1;strokeColor=default;fontFamily=Helvetica;fontSize=12;fontColor=default;fillColor=default;" vertex="1" parent="1">
          <mxGeometry x="510" y="430" width="120" height="150" as="geometry" />
        </mxCell>
        <mxCell id="hziW49wvyorwkzN3ixbF-53" value="" style="group" vertex="1" connectable="0" parent="1">
          <mxGeometry x="160" y="300" width="150" height="400" as="geometry" />
        </mxCell>
        <mxCell id="hziW49wvyorwkzN3ixbF-26" value="Frontend" style="text;html=1;strokeColor=none;fillColor=none;align=center;verticalAlign=middle;whiteSpace=wrap;rounded=0;" vertex="1" parent="hziW49wvyorwkzN3ixbF-53">
          <mxGeometry x="34.29" y="40" width="81.42857142857143" height="30" as="geometry" />
        </mxCell>
        <mxCell id="hziW49wvyorwkzN3ixbF-18" value="" style="swimlane;startSize=0;sketch=1;fillStyle=auto;html=1;" vertex="1" parent="hziW49wvyorwkzN3ixbF-53">
          <mxGeometry y="70" width="150" height="250" as="geometry" />
        </mxCell>
        <mxCell id="hziW49wvyorwkzN3ixbF-19" value="" style="outlineConnect=0;fontColor=#232F3E;gradientColor=none;fillColor=#4D4D4D;strokeColor=none;dashed=0;verticalLabelPosition=bottom;verticalAlign=top;align=center;html=1;fontSize=12;fontStyle=0;aspect=fixed;pointerEvents=1;shape=mxgraph.aws4.mobile_client;fillStyle=auto;shadow=0;" vertex="1" parent="hziW49wvyorwkzN3ixbF-18">
          <mxGeometry x="51.34571428571429" y="20" width="47.31" height="90" as="geometry" />
        </mxCell>
        <mxCell id="hziW49wvyorwkzN3ixbF-22" value="" style="verticalLabelPosition=bottom;html=1;verticalAlign=top;align=center;strokeColor=none;fillColor=#808080;shape=mxgraph.azure.laptop;pointerEvents=1;shadow=0;sketch=0;fillStyle=auto;" vertex="1" parent="hziW49wvyorwkzN3ixbF-18">
          <mxGeometry x="35" y="150" width="80" height="60" as="geometry" />
        </mxCell>
        <mxCell id="hziW49wvyorwkzN3ixbF-56" value="" style="group" vertex="1" connectable="0" parent="1">
          <mxGeometry x="650" y="360" width="60" height="110" as="geometry" />
        </mxCell>
        <mxCell id="hziW49wvyorwkzN3ixbF-1" value="" style="shape=cylinder3;whiteSpace=wrap;html=1;boundedLbl=1;backgroundOutline=1;size=15;fillStyle=auto;sketch=1;curveFitting=1;jiggle=2;" vertex="1" parent="hziW49wvyorwkzN3ixbF-56">
          <mxGeometry y="30" width="60" height="80" as="geometry" />
        </mxCell>
        <mxCell id="hziW49wvyorwkzN3ixbF-54" value="&lt;div&gt;Database&lt;/div&gt;" style="text;html=1;strokeColor=none;fillColor=none;align=center;verticalAlign=middle;whiteSpace=wrap;rounded=0;fontSize=12;fontFamily=Helvetica;fontColor=default;" vertex="1" parent="hziW49wvyorwkzN3ixbF-56">
          <mxGeometry width="60" height="30" as="geometry" />
        </mxCell>
        <mxCell id="hziW49wvyorwkzN3ixbF-57" value="" style="group" vertex="1" connectable="0" parent="1">
          <mxGeometry x="650" y="520" width="80" height="90" as="geometry" />
        </mxCell>
        <mxCell id="hziW49wvyorwkzN3ixbF-2" value="" style="shape=dataStorage;whiteSpace=wrap;html=1;fixedSize=1;sketch=1;fillStyle=auto;" vertex="1" parent="hziW49wvyorwkzN3ixbF-57">
          <mxGeometry y="30" width="80" height="60" as="geometry" />
        </mxCell>
        <mxCell id="hziW49wvyorwkzN3ixbF-55" value="Cache" style="text;html=1;strokeColor=none;fillColor=none;align=center;verticalAlign=middle;whiteSpace=wrap;rounded=0;fontSize=12;fontFamily=Helvetica;fontColor=default;" vertex="1" parent="hziW49wvyorwkzN3ixbF-57">
          <mxGeometry x="10" width="60" height="30" as="geometry" />
        </mxCell>
        <mxCell id="hziW49wvyorwkzN3ixbF-59" style="edgeStyle=orthogonalEdgeStyle;rounded=0;sketch=1;orthogonalLoop=1;jettySize=auto;html=1;entryX=-0.018;entryY=0.536;entryDx=0;entryDy=0;entryPerimeter=0;strokeWidth=2;fontFamily=Helvetica;fontSize=12;fontColor=default;" edge="1" parent="1">
          <mxGeometry relative="1" as="geometry">
            <mxPoint x="310" y="508.03999999999996" as="sourcePoint" />
            <mxPoint x="419.99" y="508.03999999999996" as="targetPoint" />
          </mxGeometry>
        </mxCell>
      </root>
    </mxGraphModel>
  </diagram>
</mxfile>
